PathFileType	4	(X/Y/Z)	C:/Users/beibeiliu/ov580/test_trc\sequence.10_training_dense_right.trc
DataRate	CameraRate	NumFrames	NumMarkers	Units	OrigDataRate	OrigDataStartFrame	OrigNumFrames
120	120	12	19	mm	120	189	302
Frame#	Time	ThumbCMC			ThumbMCP			ThumbIP			ThumbTip			IndexMCP			IndexPIP			IndexTip			MiddleMCP			MiddlePIP			MiddleTip			RingMCP			RingPIP			RingTip			PinkyMCP			PinkyPIP			PinkyTip			BackHand1			BackHand2			BackHand3	
		X0	Y0	Z0	X1	Y1	Z1	X2	Y2	Z2	X3	Y3	Z3	X4	Y4	Z4	X5	Y5	Z5	X6	Y6	Z6	X7	Y7	Z7	X8	Y8	Z8	X9	Y9	Z9	X10	Y10	Z10	X11	Y11	Z11	X12	Y12	Z12	X13	Y13	Z13	X14	Y14	Z14	X15	Y15	Z15	X16	Y16	Z16	X17	Y17	Z17	X18	Y18	Z18	
188	1.56667	147.131	-17.5962	-9.66412	115.967	-24.3398	-15.7297	102.86	-48.4783	-17.4997	93.0229	-68.0213	-11.5066	107.219	-75.2854	-28.9095	89.0445	-86.565	-8.62441	92.0269	-73.2574	15.2654	116.834	-91.7785	-28.1775	102.785	-109.726	-22.838	78.378	-125.941	-9.34911	133.208	-96.4761	-19.8668	118.293	-113.303	-19.1139	98.68	-127.986	-14.0572	151.478	-95.9933	-8.78441	134.617	-111.561	-12.9776	116.19	-123.657	-12.5546	170.245	-64.5592	-15.26	183.287	-47.9868	-16.0575	162.916	-40.5216	-25.3235	
189	1.575	142.453	-22.292	-12.3133	115.467	-33.1317	-17.0641	99.6031	-55.0037	-17.5341	94.8127	-75.1898	-10.3502	109.334	-78.6292	-26.3947	87.9799	-89.0673	-6.19057	93.3014	-72.547	15.022	118.136	-97.2851	-26.8065	96.6144	-114.829	-22.2775	79.7455	-128.924	-11.0578	132.612	-104.344	-19.2243	116.451	-117.646	-18.536	102.063	-133.342	-12.2807	155.81	-102.949	-5.02391	134.997	-115.77	-10.9007	121.99	-127.388	-11.2055	171.321	-70.9962	-15.7648	184.94	-50.4584	-14.3809	158.858	-43.8689	-25.4111	
190	1.58333	146.409	-23.9266	-10.5532	117.539	-36.949	-17.194	102.514	-55.415	-17.0498	94.7939	-79.7308	-11.3226	108.413	-83.3673	-26.839	90.2947	-92.637	-6.65623	98.0728	-73.8898	16.426	122.855	-99.0835	-25.3888	101.159	-120.454	-20.1214	81.7734	-135.201	-6.91258	134.204	-107.844	-18.081	119.545	-121.322	-17.6476	100.405	-137.965	-13.2711	155.318	-102.199	-5.43416	139.841	-118.717	-10.3856	125.994	-132.122	-11.0319	170.741	-76.0705	-14.342	187.553	-51.9703	-12.2156	159.434	-46.5444	-26.1814	
191	1.59167	145.853	-30.279	-13.136	121.782	-36.574	-15.8735	101.685	-59.2835	-19.3679	93.2083	-76.122	-13.3453	110.953	-89.3244	-24.9219	93.0743	-94.8986	-6.73975	96.4202	-75.8361	14.0155	121.996	-105.593	-25.2374	105.092	-121.032	-21.2079	82.6462	-134.02	-8.19535	140.598	-108.099	-16.6724	120.817	-122.511	-17.633	101.817	-135.708	-14.0439	158.212	-108.248	-5.20522	143.766	-123.329	-8.73331	124.252	-133.478	-12.8637	171.252	-74.0435	-16.9595	186.573	-53.4388	-11.9303	161.485	-53.2468	-24.5944	
192	1.6	146.646	-27.375	-14.0475	117.837	-34.7081	-18.135	106.133	-57.8568	-19.7807	93.6134	-74.4162	-14.6555	110.497	-83.7859	-27.9475	96.0029	-95.2538	-8.74436	100.489	-72.5186	14.7688	123.958	-103.712	-26.1527	102.968	-118.94	-21.5737	81.9197	-132.227	-9.77034	136.92	-108.146	-19.0957	123.967	-123.613	-17.3869	99.9254	-134.698	-14.7731	154.914	-105.128	-7.85633	142.668	-122.059	-11.3911	129.733	-134.959	-12.6685	171.991	-73.9891	-14.6273	185.342	-55.2289	-13.2802	164.572	-46.9898	-25.7302	
193	1.60833	149.924	-23.9037	-11.5453	118.621	-35.5566	-19.4225	105.36	-50.2108	-18.8797	93.7698	-72.4408	-15.9875	114.401	-80.0406	-29.6262	94.367	-91.7034	-11.8373	98.3127	-69.9917	11.8183	122.934	-99.2915	-28.1177	106.333	-114.211	-25.1957	85.0966	-128.628	-12.1391	142.83	-103.242	-18.517	120.929	-119.706	-19.6475	101.37	-133.604	-14.8594	160.798	-104.313	-5.19586	143.753	-121.714	-12.1081	128.656	-134.472	-13.2695	173.641	-75.3113	-17.106	191.87	-52.8308	-11.8461	165.956	-44.6158	-25.6387	
194	1.61667	147.49	-19.7452	-14.5166	118.504	-31.0261	-20.3516	104.556	-51.4246	-21.6919	96.8858	-69.7879	-16.4259	114.54	-82.3816	-30.3417	94.7407	-90.3421	-12.6663	99.6799	-75.2578	10.8095	125.788	-99.5616	-29.4969	108.879	-116.809	-24.5686	88.1388	-129.97	-13.6287	142.344	-101.953	-20.0221	126.274	-118.822	-19.2164	108.305	-131.921	-13.7406	157.018	-100.387	-10.4554	148.694	-116.143	-11.3813	131.151	-126.651	-15.7709	171.823	-69.9693	-17.4934	190.205	-49.4072	-14.9838	163.802	-43.2229	-29.0181	
195	1.625	148.277	-21.2576	-16.3641	120.932	-31.603	-21.2979	107.791	-48.2208	-20.7238	101.061	-69.4579	-16.2521	114.136	-79.6408	-31.866	93.8359	-88.5124	-15.6474	96.2379	-68.171	8.91502	124.123	-94.1433	-31.8581	106.921	-112.736	-27.1627	91.6419	-129.085	-15.6186	142.192	-101.599	-20.0156	126.615	-115.867	-20.2971	106.734	-129.301	-15.9872	158.698	-99.3978	-10.7446	148.74	-114.604	-11.8843	128.136	-125.973	-17.9278	172.005	-63.1588	-17.8995	189.256	-46.8812	-14.0229	165.385	-40.8746	-27.4989	
196	1.63333	148.751	-15.7172	-15.5974	121.462	-27.2911	-21.8191	108.932	-44.9499	-21.2016	97.5991	-64.8519	-17.6045	113.287	-75.6464	-34.2457	95.4795	-84.5348	-16.4093	96.1399	-66.2457	7.76823	124.647	-91.9428	-32.239	107.749	-110.086	-28.8601	87.3139	-126.696	-16.7723	141.389	-94.5007	-23.9216	126.998	-113.58	-22.6921	108.995	-126.734	-18.5394	157.828	-92.2795	-12.0139	144.926	-112.337	-15.261	135.196	-124.349	-19.5397	175.421	-65.1034	-20.3551	192.091	-41.5737	-13.342	165.353	-38.1506	-28.1806	
197	1.64167	149.158	-11.6815	-15.3821	119.159	-24.158	-23.5747	106.083	-42.8876	-24.3251	99.5054	-60.0055	-17.7176	114.895	-70.7798	-34.247	95.8269	-81.6673	-13.9137	100.435	-67.2356	7.40518	126.794	-84.0767	-34.4497	109.615	-103.164	-32.0982	88.1323	-124.146	-17.6414	140.851	-90.3129	-25.6252	125.95	-111.176	-24.4088	108.752	-120.776	-22.9738	162.88	-91.463	-12.2206	145.861	-108.251	-17.9104	132.07	-118.193	-21.2461	172.758	-60.047	-20.9638	189.539	-34.9583	-16.2283	163.422	-32.1004	-32.4319	
198	1.65	150.508	-9.94327	-16.3205	123.94	-17.6715	-21.5959	107.842	-38.4226	-24.8687	95.8226	-60.1828	-20.7692	116.392	-65.5388	-36.797	98.3179	-79.3315	-14.9812	101.152	-57.6707	7.3374	129.838	-85.7101	-34.1343	106.872	-101.043	-33.4492	88.8229	-118.885	-21.8527	144.566	-88.7507	-24.9452	125.614	-107.404	-27.2618	109.675	-116.177	-24.112	161.699	-88.6666	-14.8448	147.532	-105.754	-18.7816	135.992	-116.074	-23.0475	175.462	-54.9758	-20.7325	188.441	-35.6542	-20.0125	167.063	-30.6192	-30.2137	
199	1.65833	149.634	-10.3024	-19.338	120.645	-18.5465	-25.9485	109.64	-39.2017	-26.7648	99.5837	-56.4636	-21.9207	117.456	-68.3885	-34.6612	97.3348	-75.2368	-19.1918	102.79	-57.991	4.36698	129.785	-83.3593	-36.3762	111.175	-98.0374	-34.566	91.9545	-118.028	-19.1839	145.611	-86.827	-26.1768	126.031	-102.297	-29.0236	109.384	-118.094	-23.8552	164.567	-85.2256	-13.3741	148.387	-102.4	-20.677	134.4	-112.877	-24.2233	176.684	-56.5361	-21.6247	191.936	-31.737	-17.4161	165.666	-25.6801	-34.2444	
